# xmcd
#
# Track frame offsets: 
#        150
#        28361
#        45504
#        62133
#        79147
#        98090
#        110473
#        135008
#        154887
#        166836
#        180735
#        193934
#
# Disc length: 2936 seconds
#
# Revision: 0
# Processed by: cddbd v1.5.2PL0 Copyright (c) Steve Scherf et al.
# Submitted via: ExactAudioCopy v0.95a5
#
DISCID=990b760c
DTITLE=Various Artist - BLUE SAX! LIVE! SEASON 2008 - 09 cd3
DYEAR=2009
DGENRE=Blues
TTITLE0=Robert Johnson's Backbone - Loonie's Blues
TTITLE1=Grupa Dudlasi - Bacam cini na tebe
TTITLE2=Ivan Vragolovich - Red Hair Devil
TTITLE3=Macke - Dugo i polako
TTITLE4=Dudo Vorih Blues Band - Every Night And Day
TTITLE5=Bebe Na Vole - Slick Shoes And Empty Eyes
TTITLE6=Tomislav Goluban and Lpfb - Mr. B
TTITLE7=Cardas Blues Band - Az A Szep
TTITLE8=VIS Peri Deri - Turopoljac travu kosi
TTITLE9=No Limits - Dobro jutro
TTITLE10=Zgrivas - Diamond Ring
TTITLE11=Gatuzo - Dobar osjecaj
EXTD=
EXTT0=
EXTT1=
EXTT2=
EXTT3=
EXTT4=
EXTT5=
EXTT6=
EXTT7=
EXTT8=
EXTT9=
EXTT10=
EXTT11=
PLAYORDER=
